<?xml version="1.0" encoding="utf-8"?>
<!-- Generator: Adobe Illustrator 25.2.3, SVG Export Plug-In . SVG Version: 6.00 Build 0)  -->
<svg version="1.1" id="Layer_1" xmlns="http://www.w3.org/2000/svg" xmlns:xlink="http://www.w3.org/1999/xlink" x="0px" y="0px"
	 viewBox="0 0 733 503" style="enable-background:new 0 0 733 503;" xml:space="preserve">
<style type="text/css">
	.st0{fill:#F0F0F0;}
	.st1{fill:#E3DFDF;}
	.st2{fill:#474747;}
	.st3{fill:#15D1D9;}
	.st4{fill:#29EBF3;}
	.st5{fill:#02B4BE;}
	.st6{fill:#99E4E8;}
	.st7{fill:none;stroke:#02B4BE;}
	.st8{fill:#040404;}
	.st9{fill:#2F3E53;}
	.st10{fill:#1A2536;}
	.st11{fill:#FF7B00;}
	.st12{fill:#FF9B58;}
	.st13{fill:#FF8989;}
	.st14{fill:none;stroke:#000000;stroke-width:0.5;stroke-linecap:round;}
	.st15{fill:#FF0080;}
	.st16{fill:none;stroke:#000000;}
	.st17{fill:#FF0004;}
	.st18{fill:#FFFB00;}
	.st19{fill:none;stroke:#DDDDDD;stroke-width:2;}
	.st20{fill:none;stroke:#5500FF;stroke-width:5;}
	.st21{fill:#DDDDDD;}
	.st22{fill:#5500FF;}
	.st23{fill:#DA8759;}
	.st24{fill:#F79F6F;}
	.st25{fill:#FFC86E;}
	.st26{fill:#78AAD9;}
	.st27{fill:#FFC86F;}
	.st28{fill:#FFA878;}
	.st29{fill:#FFBE53;}
	.st30{fill:#222222;}
	.st31{fill:#9D9D9D;}
	.st32{fill:#F6DDBB;}
	.st33{fill:#FFFFFF;}
	.st34{fill:#FF0000;}
	.st35{fill:none;stroke:#000000;stroke-linecap:round;}
	.st36{fill:none;stroke:#222222;}
	.st37{fill:#7D7D7D;}
	.st38{fill:#FFF4E5;}
	.st39{fill:none;stroke:#DA8759;}
	.st40{fill:#FFFFFF;stroke:#FFFFFF;}
	.st41{fill:none;stroke:#000000;stroke-width:0.5;}
	.st42{fill:#6BF0F6;}
</style>
<path class="st0" d="M596.9,365.6c0,94.3-86,75-263.3,75S0.5,445,0.5,350.8c0-94.3-18.1-259.9,159.2-259.9
	C337,90.8,596.9,271.4,596.9,365.6z"/>
<path class="st1" d="M72.4,451.3H604l23.9,51.7H23.3L72.4,451.3z"/>
<rect x="146" y="410" class="st2" width="20.7" height="31"/>
<rect x="458.6" y="410" class="st2" width="20.7" height="31"/>
<path class="st3" d="M152.4,336.3h311.5c9.9,0,18,8.1,18,18v45.4c0,9.9-8.1,18-18,18H152.4c-9.9,0-18-8.1-18-18v-45.4
	C134.4,344.4,142.4,336.3,152.4,336.3z"/>
<path class="st3" d="M164,191.6h299.9c9.9,0,18,8.1,18,18v125.5c0,9.9-8.1,18-18,18H164c-9.9,0-18-8.1-18-18V209.6
	C146,199.7,154,191.6,164,191.6z"/>
<path class="st4" d="M164,316.9h299.9c9.9,0,18,8.1,18,18v0.2c0,9.9-8.1,18-18,18H164c-9.9,0-18-8.1-18-18v-0.2
	C146,325,154,316.9,164,316.9z"/>
<path class="st4" d="M131.8,402.2h382.4c4.3,0,7.8,3.5,7.8,7.8l0,0c0,4.3-3.5,7.8-7.8,7.8H131.8c-4.3,0-7.8-3.5-7.8-7.8l0,0
	C124,405.7,127.5,402.2,131.8,402.2z"/>
<path class="st5" d="M146,267.8v132c0,9.9-8.1,18-18,18H96.8c-9.9,0-18-8.1-18-18v-132c0-9.9,8.1-18,18-18H128
	C137.9,249.8,146,257.8,146,267.8z"/>
<path class="st6" d="M78.9,271.6c0.3-1.1,1.9-1.1,2.2,0.1l22.5,106.5c1.4,6.8,6.6,12.1,13.4,13.8l18.9,4.6c5.4,1.3,8.5,7,6.6,12.3
	c-1,2.8-3.2,4.9-6.1,5.7l-7.8,2.4c-1.7,0.5-3.5,0.8-5.2,0.8H96.8c-9.9,0-18-8.1-18-18V271.9C78.8,271.8,78.8,271.7,78.9,271.6z"/>
<path class="st5" d="M546.5,267.8v132c0,9.9-8.1,18-18,18h-31.2c-9.9,0-18-8.1-18-18v-132c0-9.9,8.1-18,18-18h31.2
	C538.4,249.8,546.5,257.8,546.5,267.8z"/>
<path class="st6" d="M546.4,273.5c-0.3-1.1-1.9-1.1-2.2,0.1l-22.5,106.5c-1.4,6.8-6.6,12.1-13.4,13.8l-18.9,4.6
	c-5.4,1.3-8.5,7-6.6,12.3c1,2.8,3.2,4.9,6.1,5.7l7.8,2.4c1.7,0.5,3.5,0.8,5.2,0.8h26.5c9.9,0,18-8.1,18-18V273.8
	C546.5,273.7,546.5,273.6,546.4,273.5z"/>
<line class="st7" x1="308.3" y1="316.9" x2="308.3" y2="191.6"/>
<line class="st7" x1="207.9" y1="224.8" x2="195.9" y2="236.8"/>
<line class="st7" x1="207.9" y1="236.8" x2="195.9" y2="224.8"/>
<line class="st7" x1="261" y1="224.8" x2="249" y2="236.8"/>
<line class="st7" x1="261" y1="236.8" x2="249" y2="224.8"/>
<line class="st7" x1="314" y1="224.8" x2="302" y2="236.8"/>
<line class="st7" x1="314" y1="236.8" x2="302" y2="224.8"/>
<line class="st7" x1="367.1" y1="224.8" x2="355.1" y2="236.8"/>
<line class="st7" x1="367.1" y1="236.8" x2="355.1" y2="224.8"/>
<line class="st7" x1="207.9" y1="288.1" x2="195.9" y2="300.1"/>
<line class="st7" x1="207.9" y1="300.1" x2="195.9" y2="288.1"/>
<line class="st7" x1="261" y1="288.1" x2="249" y2="300.1"/>
<line class="st7" x1="261" y1="300.1" x2="249" y2="288.1"/>
<line class="st7" x1="314" y1="288.1" x2="302" y2="300.1"/>
<line class="st7" x1="314" y1="300.1" x2="302" y2="288.1"/>
<line class="st7" x1="367.1" y1="288.1" x2="355" y2="300.1"/>
<line class="st7" x1="367.1" y1="300.1" x2="355" y2="288.1"/>
<line class="st7" x1="248" y1="257.4" x2="232.5" y2="272.9"/>
<line class="st7" x1="248.2" y1="272.9" x2="232.7" y2="257.4"/>
<line class="st7" x1="384.9" y1="258.7" x2="369.4" y2="274.2"/>
<line class="st7" x1="385.1" y1="274.2" x2="369.6" y2="258.7"/>
<path class="st8" d="M290.7,454.6c4.2-10.5-44,0-42.5-7.2c-6,12-44.9-2.1-42.4,7.2c0,4,19,5.7,42.4,5.7
	C261.8,460.4,290.7,458.6,290.7,454.6z"/>
<ellipse class="st9" cx="248.2" cy="452.5" rx="42.4" ry="5.1"/>
<path class="st10" d="M245.1,310.5h5c1.1,0,2,0.9,2,2v136.8c0,1.1-0.9,2-2,2h-5c-1.1,0-2-0.9-2-2V312.5
	C243.1,311.4,244,310.5,245.1,310.5z"/>
<path class="st8" d="M338.7,310.5c9-22.6-94.3,0-91.1-15.5c-12.9,25.8-96.2-4.5-91.1,15.5c0,8.6,40.8,12.3,91.1,12.3
	C276.7,322.7,338.7,319,338.7,310.5z"/>
<ellipse class="st9" cx="247.6" cy="306" rx="91.1" ry="11"/>
<path class="st11" d="M91.3,442.9c-0.4,0-0.7,0-1,0.2l-33,16.1c-1.3,0.6-1.5,2.4-0.4,3.3l32,27.5c1.9,1.6,4.4-0.9,2.9-2.8
	l-15.9-19.4c-1-1.2-0.3-3,1.2-3.2l37-6.1c0.2,0,0.3-0.1,0.5-0.1l19.6-8.3c1.9-0.8,1.5-3.7-0.6-3.8L91.3,442.9z"/>
<path class="st11" d="M150,329.1c-0.6-1.8-3.2-1.8-3.8,0l-9.7,27.9c-0.5,1.3,0.5,2.6,1.9,2.7l19,0.2c1.4,0,2.3-1.3,1.9-2.6
	L150,329.1z"/>
<path class="st11" d="M111.1,340.4c-1.5-1.1-3.5,0.2-3.1,2l4.9,24.6c0.3,1.4,1.9,2.1,3,1.3l15.5-9.9c1.2-0.8,1.2-2.5,0.1-3.3
	L111.1,340.4z"/>
<path class="st12" d="M91.6,451.1c9.9,28.6,29.9,19.5,53.1,19.5s38.3-18,39.5-38.3c0.2-2.9-18.8-58.5-42-58.5
	C119.1,373.8,81.7,422.5,91.6,451.1z"/>
<path class="st12" d="M96.5,371.2c0,17.8,17.4,32.3,38.8,32.3s49.7-22,42.6-43.9c-14.9-25.2-4.5,5.2-29.7-12.9
	C99.7,348.6,124.9,379.6,96.5,371.2z"/>
<ellipse transform="matrix(0.9477 -0.3192 0.3192 0.9477 -110.1169 61.0837)" cx="131.3" cy="366.5" rx="1.9" ry="2.6"/>
<ellipse cx="147.5" cy="363.4" rx="1.9" ry="2.6"/>
<path class="st13" d="M146.6,378.9c0,2.1-2.1,4.5-3.9,4.5c-1.8,0-3.9-1.9-4.5-3.9c2.6-1.3,1.4-3.9,3.2-3.9S144.7,378.3,146.6,378.9z
	"/>
<path class="st14" d="M141.7,375.1c0,0,3.8,4.3,7.1,4.5c4.6,0.2,9-7.8,9-7.8"/>
<path class="st14" d="M125.5,378.1c0,0,3.8,4.3,7.1,4.5c4.6,0.3,9-7.8,9-7.8"/>
<path class="st15" d="M137.3,372.8c0.2,1.3,1.7,3.4,3.7,3.1c2.1-0.3,3.9-2.8,3.7-4.1c-0.2-1.3-1.9-0.1-3.9,0.2
	C138.8,372.3,137.2,371.5,137.3,372.8z"/>
<line class="st16" x1="167.7" y1="367.8" x2="197.4" y2="358.8"/>
<line class="st16" x1="170.8" y1="372.2" x2="192.1" y2="371.7"/>
<line class="st16" x1="168.2" y1="374.2" x2="197" y2="385.8"/>
<line class="st16" x1="117.3" y1="375.2" x2="86.2" y2="374.8"/>
<line class="st16" x1="115.5" y1="380.3" x2="94.9" y2="385.7"/>
<line class="st16" x1="118.6" y1="381.6" x2="94.1" y2="400.6"/>
<path class="st17" d="M163.4,389.2l-50.3,2.7c-2.1,0.1-3.8,1.9-3.7,4.1l0,0c0.1,2.1,1.9,3.8,4.1,3.7l50.3-2.7
	c2.1-0.1,3.8-1.9,3.7-4.1l0,0C167.4,390.8,165.5,389.1,163.4,389.2z"/>
<circle class="st18" cx="140.4" cy="402.2" r="7.8"/>
<rect x="137.7" y="389.3" transform="matrix(0.9995 -3.097507e-02 3.097507e-02 0.9995 -12.092 4.5139)" width="3.9" height="6.5"/>
<ellipse transform="matrix(0.9884 -0.1522 0.1522 0.9884 -68.7257 30.1686)" class="st11" cx="162.7" cy="464" rx="11.6" ry="7.1"/>
<ellipse transform="matrix(0.115 -0.9934 0.9934 0.115 -352.3992 534.9635)" class="st11" cx="124" cy="465.3" rx="7.1" ry="11.6"/>
<path class="st19" d="M320.7,283.3c0,2.1-1.2,4.1-3.4,5.6c-2.2,1.5-5.2,2.5-8.6,2.5s-6.4-1-8.6-2.5s-3.4-3.5-3.4-5.6
	s1.2-4.1,3.4-5.6c2.1-1.5,5.2-2.5,8.6-2.5s6.4,1,8.6,2.5C319.5,279.3,320.7,281.3,320.7,283.3z"/>
<path class="st20" d="M323,298.8l14.2,4.5l14.9,27.8"/>
<path class="st21" d="M325.1,281.8l1,21.8c0,0.6-0.4,1-1,1l-29.8,1.4c-0.6,0-1-0.4-1-1l-1-21.8c0-0.6,0.4-1,1-1l29.8-1.4
	C324.6,280.8,325.1,281.2,325.1,281.8z"/>
<path class="st22" d="M383.7,328.6c7.8,9.7-1.1,10.3-12.9,10.3s-25.8-0.6-25.8-4.5s5.2-15.5,14.9-7.1
	C371.6,327.3,367.6,328.6,383.7,328.6z"/>
<polygon class="st23" points="565.2,171.4 533.1,173.3 534.3,198 566.5,196.1 "/>
<path class="st24" d="M559.5,151.7c-0.8,6.5,2.8,12.3,8.2,13.1s10.4-3.8,11.2-10.3s-2.8-12.3-8.2-13.1
	C565.3,140.6,560.3,145.2,559.5,151.7z"/>
<ellipse transform="matrix(0.9925 -0.1224 0.1224 0.9925 -14.8732 65.4897)" class="st24" cx="525.6" cy="153.8" rx="7.2" ry="11.8"/>
<path class="st25" d="M521.4,191.5c-3.4-5.1-10.2-6.4-15.2-2.7l-76.1,55.1c-5.4,3.9-6.8,11.6-3.2,17.2c3.6,5.5,10.8,6.8,16.1,2.9
	l75.5-56C523.7,204.2,524.9,196.8,521.4,191.5z"/>
<path class="st26" d="M614.4,276.3l-78.4-5.8l-15,5l23.5,205l20.9,1.9l6.6-140.6l16.4,140.6l20.7-1.9L614.4,276.3z"/>
<path class="st27" d="M599.2,186.3c0,0-73.7-2-88.9,0c-15.2,2,10.6,89.5,10.6,89.5l93.6,1.2L599.2,186.3z"/>
<path class="st28" d="M524.6,157.8c3.1,19.3,9.4,21.7,22.4,27.7c17-4.5,23-14.5,26.5-37.5c0-20.5-1.6-26.2-16.6-23.1
	C543.5,118,521.5,107.5,524.6,157.8z"/>
<path class="st1" d="M576.8,122.6c-0.5-1.5-1.7-2.7-3.3-3.1l-20.3-6.3c-0.8-0.2-1.6-0.3-2.4-0.1l-21.6,4.3c-1.3,0.3-2.5,1-3.2,2.2
	l-4.3,6.6c-1.9,3-0.3,6.9,3.2,7.6l23.7,4.8c0.6,0.1,1.1,0.1,1.7,0l24.5-3.5c3.1-0.4,5.1-3.6,4-6.6L576.8,122.6z"/>
<path class="st26" d="M576.9,132.2h-56.7c-1.9,0-3.4,1.5-3.4,3.4l0,0c0,1.9,1.5,3.4,3.4,3.4h56.7c1.9,0,3.4-1.5,3.4-3.4l0,0
	C580.3,133.8,578.8,132.2,576.9,132.2z"/>
<path class="st26" d="M538,217.5l37-1.5l30.5,61.5h-80L538,217.5z"/>
<path class="st26" d="M583.1,185.8l-12-0.3v93.2h12V185.8z"/>
<path class="st26" d="M533,185.5h-11.5l14.5,92.9l11.1-2L533,185.5z"/>
<path class="st29" d="M605.3,191.2c-4.7-7.2-14.7-7.2-19.7,0l-23.2,33.4c-2.3,3.4-5.6,5.9-9.2,7.3l-36,13.9c-6.5,2.5-9,11-4.9,16.7
	c2.6,3.6,7.1,5.1,11.2,3.6l43.5-15.3c3.6-1.3,6.9-3.7,9.3-6.8l28.4-37.4C608,202,608.3,195.8,605.3,191.2z"/>
<polygon class="st30" points="498.3,242 445,261 451.7,282.6 505,263.6 "/>
<path class="st31" d="M508.7,235.2c-15.6-16.5-53.3,19-53.3,19l9,28.9l53.3-19C517.7,264.2,516.6,243.6,508.7,235.2z"/>
<path class="st31" d="M492.2,262.4l16.7,19.8l12.4-3.9l-8.3-24.1L492.2,262.4z"/>
<ellipse transform="matrix(0.8614 -0.508 0.508 0.8614 -60.1456 297.0381)" class="st32" cx="514.1" cy="258.7" rx="18.2" ry="11.7"/>
<ellipse transform="matrix(0.8869 -0.462 0.462 0.8869 -69.0183 228.894)" class="st32" cx="432.9" cy="255.4" rx="17.7" ry="12.4"/>
<ellipse cx="538.9" cy="148.5" rx="1.8" ry="3.4"/>
<ellipse cx="558.2" cy="148.5" rx="1.8" ry="3.4"/>
<path class="st33" d="M538.9,166.2c0,1.1,4,4.4,8.3,4.4s8.7-2.4,8.7-3.4s-4.4-1-8.7-1S538.9,165.1,538.9,166.2z"/>
<path class="st34" d="M538.9,167.2c0,1.1,4.4,8.4,8.8,8.4c4.3,0,7.4-6.3,7.4-7.4c0-1.1-4,2-8.3,2
	C542.4,170.1,538.9,166.1,538.9,167.2z"/>
<path class="st16" d="M556.4,166.4c0,0-4.8,9.3-8.9,9.5c-4.5,0.2-9.3-10.2-9.3-10.2"/>
<path class="st35" d="M556.4,166.7l-18.4-1"/>
<line class="st16" x1="542.6" y1="141.6" x2="532.6" y2="141.6"/>
<line class="st16" x1="563.2" y1="141.6" x2="553.3" y2="141.6"/>
<line class="st36" x1="478.2" y1="264.7" x2="488.1" y2="275.3"/>
<line class="st36" x1="471.5" y1="266.6" x2="481.4" y2="277.3"/>
<line class="st36" x1="464.7" y1="268.6" x2="474.7" y2="279.2"/>
<ellipse class="st25" cx="499.7" cy="245.8" rx="1.4" ry="1.5"/>
<ellipse class="st37" cx="504.8" cy="244.4" rx="1.8" ry="2"/>
<path class="st38" d="M586.8,489.9c0,7.3,19.8,5.4,36.4,5.4c16.5,0,16.1-5.5,16.1-12.8c-43.3-4.9-21.2-6.4-37.8-6.4
	C585,476.1,586.8,482.5,586.8,489.9z"/>
<path class="st38" d="M566.4,490.2c0,7.3-19.8,5.4-36.4,5.4c-16.5,0-16.1-5.5-16.1-12.8c43.3-4.9,21.2-6.4,37.8-6.4
	C568.2,476.5,566.4,482.9,566.4,490.2z"/>
<line class="st39" x1="547.6" y1="150.7" x2="544" y2="158.9"/>
<line class="st39" x1="548.2" y1="159.6" x2="543.6" y2="158.3"/>
<path class="st33" d="M134,377.4L65.5,366l8.2-13.4L134,377.4z"/>
<path class="st40" d="M87.4,347.9c0,5.8-4.5,11.1-12,15.1c-7.5,3.9-17.9,6.4-29.5,6.4c-11.5,0-21.9-2.4-29.5-6.4
	c-7.5-3.9-12-9.3-12-15.1c0-5.8,4.5-11.1,12-15.1c7.5-3.9,17.9-6.4,29.5-6.4c11.5,0,21.9,2.4,29.5,6.4
	C82.9,336.8,87.4,342.2,87.4,347.9z"/>
<path class="st3" d="M36.8,353.8c0,0.1-0.1,0.2-0.2,0.2h-2c-0.1,0-0.2-0.1-0.2-0.2l-0.6-7.4l-1.7,7.4c0,0.1-0.1,0.1-0.2,0.1h-2
	c-0.1,0-0.2,0-0.2-0.1l-1.7-7.4l-0.6,7.4c0,0.1-0.1,0.2-0.2,0.2h-1.9c-0.1,0-0.2-0.1-0.2-0.2l1.1-13.6c0-0.1,0.1-0.2,0.2-0.2h2
	c0.1,0,0.2,0,0.2,0.1l2.3,9.8l2.3-9.8c0-0.1,0.1-0.1,0.2-0.1h2c0.1,0,0.2,0.1,0.2,0.2L36.8,353.8z M44.7,340c0.1,0,0.2,0.1,0.2,0.2
	v13.6c0,0.1-0.1,0.2-0.2,0.2h-2c-0.1,0-0.2-0.1-0.2-0.2v-5.7h-0.6l-1.7,5.7c0,0.1-0.1,0.1-0.2,0.1h-1.9c-0.1,0-0.1,0-0.2-0.1
	c0-0.1,0-0.1,0-0.2l1.7-5.7c-0.3-0.1-0.5-0.2-0.6-0.3c-0.3-0.2-0.6-0.5-0.8-0.8c-0.2-0.4-0.3-0.8-0.3-1.2v-3.5
	c0-0.3,0.1-0.6,0.2-0.9c0.1-0.3,0.3-0.5,0.5-0.8c0.2-0.2,0.5-0.4,0.7-0.5c0.3-0.1,0.6-0.2,0.9-0.2h4.5C44.7,339.7,44.7,340,44.7,340
	z M42.5,345.8v-3.5h-2.1c-0.1,0-0.2,0.1-0.2,0.2v3.1c0,0.1,0.1,0.2,0.2,0.2L42.5,345.8L42.5,345.8z M53.2,340c0.1,0,0.2,0.1,0.2,0.2
	v13.6c0,0.1-0.1,0.2-0.2,0.2h-2c-0.1,0-0.2-0.1-0.2-0.2v-5.7h-0.6l-1.7,5.7c0,0.1-0.1,0.1-0.2,0.1h-1.9c-0.1,0-0.1,0-0.2-0.1
	c0-0.1,0-0.1,0-0.2l1.7-5.7c-0.3-0.1-0.5-0.2-0.6-0.3c-0.3-0.2-0.6-0.5-0.8-0.8c-0.2-0.4-0.3-0.8-0.3-1.2v-3.5
	c0-0.3,0.1-0.6,0.2-0.9c0.1-0.3,0.3-0.5,0.5-0.8c0.2-0.2,0.5-0.4,0.7-0.5c0.3-0.1,0.6-0.2,0.9-0.2h4.5C53.2,339.7,53.2,340,53.2,340
	z M51.1,345.8v-3.5H49c-0.1,0-0.2,0.1-0.2,0.2v3.1c0,0.1,0.1,0.2,0.2,0.2L51.1,345.8L51.1,345.8z M61.8,340c0.1,0,0.2,0.1,0.2,0.2
	v13.6c0,0.1-0.1,0.2-0.2,0.2h-2c-0.1,0-0.2-0.1-0.2-0.2v-5.7H59l-1.7,5.7c0,0.1-0.1,0.1-0.2,0.1h-1.9c-0.1,0-0.1,0-0.2-0.1
	c0-0.1,0-0.1,0-0.2l1.7-5.7c-0.3-0.1-0.5-0.2-0.6-0.3c-0.3-0.2-0.6-0.5-0.8-0.8c-0.2-0.4-0.3-0.8-0.3-1.2v-3.5
	c0-0.3,0.1-0.6,0.2-0.9c0.1-0.3,0.3-0.5,0.5-0.8c0.2-0.2,0.5-0.4,0.7-0.5c0.3-0.1,0.6-0.2,0.9-0.2h4.5C61.8,339.7,61.8,340,61.8,340
	z M59.7,345.8v-3.5h-2.1c-0.1,0-0.2,0.1-0.2,0.2v3.1c0,0.1,0.1,0.2,0.2,0.2L59.7,345.8L59.7,345.8z M70,340.2l-2.3,13.6
	c0,0.1-0.1,0.2-0.2,0.2h-2.8c-0.1,0-0.2-0.1-0.2-0.2l-0.3-2c0-0.1,0-0.2,0.2-0.2h1.3l0.4-2.3h-1.4c-0.1,0-0.2-0.1-0.2-0.2l-1.5-9
	c0-0.1,0-0.1,0-0.2s0.1-0.1,0.1-0.1h2c0.1,0,0.2,0.1,0.2,0.2l1.1,6.8l1.1-6.8c0-0.1,0.1-0.2,0.2-0.2h1.9c0.1,0,0.1,0,0.2,0.1
	S70,340.2,70,340.2z"/>
<path class="st41" d="M138.2,380c0,0,2.3,3.5,4.5,3.5c2.5,0,3.9-4.5,3.9-4.5"/>
<path class="st42" d="M478.9,72.7l4.5,48.5l19.3,5.2l-19.3,7l-9,45.5l-3.8-45.5l-20.5-7l20.5-5.2L478.9,72.7z"/>
<path class="st42" d="M643.6,369.2l-0.7,23.2l8.9,4.5l-9.6,1.1l-8.6,37.2l2.5-38.6l-9.3-5.5l10-0.2L643.6,369.2z"/>
<path class="st42" d="M610.4,106.9l1.6,24.4l12.4,4.1l-12.7,2l-7.6,39.8l-0.7-40.7l-13.1-5l13.4-1L610.4,106.9z"/>
</svg>
