<?xml version="1.0" encoding="utf-8"?>
<!-- Generator: Adobe Illustrator 25.2.3, SVG Export Plug-In . SVG Version: 6.00 Build 0)  -->
<svg version="1.1" id="Layer_1" xmlns="http://www.w3.org/2000/svg" xmlns:xlink="http://www.w3.org/1999/xlink" x="0px" y="0px"
	 viewBox="0 0 76 58" style="enable-background:new 0 0 76 58;" xml:space="preserve">
<style type="text/css">
	.st0{fill:#15D1D9;}
</style>
<path class="st0" d="M39.7,14.6l0,1.4h-7.1V4.5h7.1v1.4h-5.4v3.6h4.4v1.3h-4.4v3.7H39.7z M46.3,14.6c0.5,0,0.9-0.1,1.2-0.2
	c0.4-0.2,0.7-0.4,0.9-0.6c0.3-0.3,0.4-0.6,0.6-1c0.1-0.4,0.2-0.8,0.2-1.3v-7h1.7v7c0,0.7-0.1,1.3-0.3,1.9c-0.2,0.6-0.5,1.1-0.9,1.5
	c-0.4,0.4-0.9,0.7-1.5,1c-0.6,0.2-1.2,0.4-1.9,0.4c-0.7,0-1.4-0.1-1.9-0.4c-0.6-0.2-1.1-0.6-1.5-1c-0.4-0.4-0.7-0.9-0.9-1.5
	c-0.2-0.6-0.3-1.2-0.3-1.9v-7h1.7v6.9c0,0.5,0.1,0.9,0.2,1.3c0.1,0.4,0.3,0.7,0.6,1c0.3,0.3,0.6,0.5,0.9,0.6
	C45.4,14.6,45.8,14.6,46.3,14.6z M56.9,10c0.4,0,0.8-0.1,1.2-0.2c0.3-0.1,0.6-0.3,0.8-0.4c0.2-0.2,0.4-0.4,0.5-0.7
	c0.1-0.3,0.2-0.6,0.2-0.9c0-0.7-0.2-1.2-0.7-1.5c-0.4-0.3-1.1-0.5-2-0.5h-1.6V10H56.9z M62.2,16h-1.5c-0.3,0-0.5-0.1-0.7-0.4l-2.8-4
	c-0.1-0.1-0.2-0.2-0.3-0.3c-0.1-0.1-0.3-0.1-0.5-0.1h-1.1V16h-1.7V4.5h3.3c0.7,0,1.4,0.1,1.9,0.2c0.5,0.1,1,0.4,1.3,0.6
	c0.4,0.3,0.6,0.6,0.8,1c0.2,0.4,0.3,0.8,0.3,1.3c0,0.4-0.1,0.8-0.2,1.1c-0.1,0.4-0.3,0.7-0.5,1c-0.2,0.3-0.5,0.5-0.9,0.7
	c-0.3,0.2-0.7,0.4-1.2,0.5c0.2,0.1,0.4,0.3,0.6,0.5L62.2,16z M74.3,10.3c0,0.9-0.1,1.6-0.4,2.4c-0.3,0.7-0.7,1.3-1.2,1.9
	c-0.5,0.5-1.1,0.9-1.8,1.2c-0.7,0.3-1.5,0.4-2.3,0.4c-0.8,0-1.6-0.1-2.3-0.4c-0.7-0.3-1.3-0.7-1.8-1.2c-0.5-0.5-0.9-1.1-1.2-1.9
	c-0.3-0.7-0.4-1.5-0.4-2.4c0-0.9,0.1-1.6,0.4-2.4c0.3-0.7,0.7-1.3,1.2-1.9c0.5-0.5,1.1-0.9,1.8-1.2c0.7-0.3,1.5-0.4,2.3-0.4
	c0.9,0,1.6,0.1,2.3,0.4c0.7,0.3,1.3,0.7,1.8,1.2c0.5,0.5,0.9,1.1,1.2,1.9C74.1,8.6,74.3,9.4,74.3,10.3z M72.5,10.3
	c0-0.7-0.1-1.3-0.3-1.8c-0.2-0.5-0.5-1-0.8-1.4c-0.3-0.4-0.8-0.7-1.2-0.9c-0.5-0.2-1-0.3-1.6-0.3c-0.6,0-1.1,0.1-1.6,0.3
	C66.4,6.4,66,6.7,65.7,7c-0.3,0.4-0.6,0.8-0.8,1.4c-0.2,0.5-0.3,1.2-0.3,1.8c0,0.7,0.1,1.3,0.3,1.8c0.2,0.5,0.5,1,0.8,1.4
	c0.3,0.4,0.8,0.7,1.2,0.9c0.5,0.2,1,0.3,1.6,0.3c0.6,0,1.1-0.1,1.6-0.3c0.5-0.2,0.9-0.5,1.2-0.9c0.3-0.4,0.6-0.8,0.8-1.4
	C72.4,11.6,72.5,10.9,72.5,10.3z M54.6,29.3c0,0.9-0.1,1.6-0.4,2.3c-0.3,0.7-0.7,1.3-1.2,1.8c-0.5,0.5-1.1,0.9-1.8,1.2
	c-0.7,0.3-1.5,0.4-2.3,0.4h-4.3V23.5h4.3c0.9,0,1.6,0.1,2.3,0.4s1.3,0.7,1.8,1.2c0.5,0.5,0.9,1.1,1.2,1.8
	C54.4,27.6,54.6,28.4,54.6,29.3z M52.8,29.3c0-0.7-0.1-1.3-0.3-1.8c-0.2-0.5-0.5-1-0.8-1.4c-0.3-0.4-0.8-0.7-1.2-0.9
	c-0.5-0.2-1-0.3-1.6-0.3h-2.6v8.7h2.6c0.6,0,1.1-0.1,1.6-0.3c0.5-0.2,0.9-0.5,1.2-0.9c0.3-0.4,0.6-0.8,0.8-1.4S52.8,29.9,52.8,29.3z
	 M60,29c0.4,0,0.8-0.1,1.2-0.2c0.3-0.1,0.6-0.3,0.8-0.4c0.2-0.2,0.4-0.4,0.5-0.7c0.1-0.3,0.2-0.6,0.2-0.9c0-0.7-0.2-1.2-0.7-1.5
	c-0.4-0.3-1.1-0.5-2-0.5h-1.6V29H60z M65.3,35h-1.5c-0.3,0-0.5-0.1-0.7-0.4l-2.8-4c-0.1-0.1-0.2-0.2-0.3-0.3
	c-0.1-0.1-0.3-0.1-0.5-0.1h-1.1V35h-1.7V23.5H60c0.7,0,1.4,0.1,1.9,0.2c0.5,0.1,1,0.4,1.3,0.6c0.4,0.3,0.6,0.6,0.8,1
	c0.2,0.4,0.3,0.8,0.3,1.3c0,0.4-0.1,0.8-0.2,1.1c-0.1,0.4-0.3,0.7-0.5,1c-0.2,0.3-0.5,0.5-0.9,0.7c-0.3,0.2-0.7,0.4-1.2,0.5
	c0.2,0.1,0.4,0.3,0.6,0.5L65.3,35z M70.8,30.5V35h-1.7v-4.5l-4.2-6.9h1.5c0.1,0,0.3,0,0.4,0.1c0.1,0.1,0.2,0.2,0.2,0.3l2.5,4.3
	c0.1,0.2,0.2,0.4,0.3,0.6c0.1,0.2,0.2,0.3,0.2,0.5c0.1-0.2,0.1-0.3,0.2-0.5c0.1-0.2,0.2-0.4,0.3-0.6l2.5-4.3
	c0.1-0.1,0.1-0.2,0.2-0.3c0.1-0.1,0.2-0.1,0.4-0.1H75L70.8,30.5z M9.2,51.5c0.1,0,0.2,0,0.2,0.1l0.7,0.7c-0.5,0.6-1,1-1.7,1.3
	C7.7,54,6.9,54.1,6,54.1c-0.8,0-1.6-0.1-2.3-0.4C3.1,53.4,2.5,53,2,52.5c-0.5-0.5-0.8-1.1-1.1-1.9c-0.3-0.7-0.4-1.5-0.4-2.4
	c0-0.9,0.1-1.7,0.4-2.4c0.3-0.7,0.7-1.3,1.2-1.9c0.5-0.5,1.1-0.9,1.8-1.2c0.7-0.3,1.5-0.4,2.3-0.4c0.8,0,1.5,0.1,2.2,0.4
	C9,43,9.5,43.4,10,43.8l-0.6,0.8c0,0.1-0.1,0.1-0.1,0.1c-0.1,0-0.1,0.1-0.2,0.1c-0.1,0-0.2-0.1-0.4-0.2c-0.1-0.1-0.3-0.2-0.5-0.3
	c-0.2-0.1-0.5-0.2-0.8-0.3c-0.3-0.1-0.7-0.2-1.2-0.2c-0.6,0-1.1,0.1-1.6,0.3c-0.5,0.2-0.9,0.5-1.2,0.9c-0.3,0.4-0.6,0.8-0.8,1.4
	c-0.2,0.5-0.3,1.2-0.3,1.8c0,0.7,0.1,1.3,0.3,1.9c0.2,0.5,0.5,1,0.8,1.4s0.8,0.7,1.2,0.9c0.5,0.2,1,0.3,1.5,0.3c0.3,0,0.6,0,0.9-0.1
	c0.3,0,0.5-0.1,0.7-0.2c0.2-0.1,0.4-0.2,0.6-0.3c0.2-0.1,0.4-0.3,0.6-0.5c0,0,0.1-0.1,0.1-0.1C9.1,51.5,9.2,51.5,9.2,51.5z
	 M13.1,42.2V54h-1.6V42.2H13.1z M22.7,52.6l0,1.4h-7.1V42.5h7.1v1.4h-5.4v3.6h4.4v1.3h-4.4v3.7H22.7z M30.9,49.7l-1.7-4.5
	c-0.1-0.3-0.2-0.7-0.4-1.2c-0.1,0.2-0.1,0.4-0.2,0.6c-0.1,0.2-0.1,0.4-0.2,0.5l-1.7,4.4H30.9z M34.3,54H33c-0.1,0-0.3,0-0.4-0.1
	s-0.2-0.2-0.2-0.3l-1-2.7h-5.1l-1,2.7c0,0.1-0.1,0.2-0.2,0.3C25,54,24.8,54,24.7,54h-1.3L28,42.5h1.7L34.3,54z M45.1,42.5V54h-0.9
	c-0.1,0-0.2,0-0.3-0.1c-0.1,0-0.2-0.1-0.3-0.2l-6.5-8.4c0,0.1,0,0.3,0,0.4c0,0.1,0,0.3,0,0.4V54h-1.5V42.5h0.9c0.1,0,0.3,0,0.3,0.1
	c0.1,0,0.2,0.1,0.2,0.2l6.5,8.4c0-0.2,0-0.3,0-0.4c0-0.1,0-0.3,0-0.4v-7.8H45.1z M49.7,54h-1.7V42.5h1.7V54z M61.9,42.5V54H61
	c-0.1,0-0.2,0-0.3-0.1c-0.1,0-0.2-0.1-0.3-0.2L54,45.3c0,0.1,0,0.3,0,0.4c0,0.1,0,0.3,0,0.4V54h-1.5V42.5h0.9c0.1,0,0.3,0,0.3,0.1
	c0.1,0,0.2,0.1,0.2,0.2l6.5,8.4c0-0.2,0-0.3,0-0.4c0-0.1,0-0.3,0-0.4v-7.8H61.9z M74.1,48.4v4.5c-0.6,0.4-1.2,0.7-1.9,0.9
	c-0.7,0.2-1.4,0.3-2.1,0.3c-0.9,0-1.8-0.1-2.5-0.4c-0.7-0.3-1.4-0.7-1.9-1.2s-0.9-1.1-1.2-1.9c-0.3-0.7-0.4-1.5-0.4-2.4
	c0-0.9,0.1-1.7,0.4-2.4c0.3-0.7,0.7-1.3,1.2-1.9c0.5-0.5,1.1-0.9,1.9-1.2c0.7-0.3,1.5-0.4,2.5-0.4c0.5,0,0.9,0,1.3,0.1
	c0.4,0.1,0.8,0.2,1.1,0.3c0.3,0.1,0.6,0.3,0.9,0.5c0.3,0.2,0.6,0.4,0.8,0.6l-0.5,0.8c-0.1,0.1-0.2,0.2-0.3,0.2c-0.1,0-0.3,0-0.4-0.1
	c-0.1-0.1-0.3-0.2-0.5-0.3c-0.2-0.1-0.4-0.2-0.6-0.3C71.6,44.1,71.3,44,71,44c-0.3-0.1-0.7-0.1-1.1-0.1c-0.6,0-1.2,0.1-1.7,0.3
	c-0.5,0.2-0.9,0.5-1.3,0.9c-0.4,0.4-0.6,0.8-0.8,1.4c-0.2,0.5-0.3,1.1-0.3,1.8c0,0.7,0.1,1.3,0.3,1.9c0.2,0.6,0.5,1,0.9,1.4
	c0.4,0.4,0.8,0.7,1.4,0.9c0.5,0.2,1.1,0.3,1.8,0.3c0.3,0,0.5,0,0.7,0c0.2,0,0.4-0.1,0.6-0.1c0.2-0.1,0.4-0.1,0.6-0.2
	c0.2-0.1,0.4-0.2,0.6-0.3v-2.4h-1.7c-0.1,0-0.2,0-0.3-0.1c-0.1-0.1-0.1-0.1-0.1-0.2v-1H74.1z"/>
<path class="st0" d="M2.5,6.7L3,6.4l-0.6-1L2.1,6.5L2.5,6.7z M2.1,8L1.6,7.9L1.6,8.1l0.1,0.2L2.1,8z M5.7,15.7L5.2,16l0,0l0,0
	L5.7,15.7z M18.5,28.8l-0.3,0.4l0,0L18.5,28.8z M25.1,31.3l0,0.5l0.2-1L25.1,31.3z M19.5,28.6l0.3-0.4L19.5,28.6z M12.5,22.5
	l0.4-0.3L12.5,22.5z M6.5,13.6c-0.3,0.1-0.4,0.4-0.3,0.6c0.1,0.3,0.4,0.4,0.6,0.3L6.5,13.6z M8.5,13.6L8.7,14l0.1,0l0.1-0.1
	L8.5,13.6z M10,14.1l0.1,0.5l0.1,0l0.1-0.1L10,14.1z M5.6,23.8L5.1,24l0,0L5.6,23.8z M7.8,28.1l-0.4,0.2l0.9-0.2L7.8,28.1z
	 M7.8,19.5l0.5,0l0-0.1l0-0.1L7.8,19.5z M7.3,18.4l0.4-0.3l-0.8,0.5L7.3,18.4z M8.4,19.6l0.5,0.1l0.1-0.3l-0.2-0.2L8.4,19.6z
	 M7.8,22.9l-0.5,0L7.8,22.9z M9.3,27.6l0.4-0.2L9.3,27.6z M10.8,29.8l0.4-0.3L10.8,29.8z M15.1,32.7l-0.2,0.5l0.6-0.8L15.1,32.7z
	 M13.6,30.6l0.4-0.2L13.6,30.6z M12.6,24.9l0.5,0l0-0.1l0-0.1L12.6,24.9z M12.4,23.9l0.5-0.1l-1,0.3L12.4,23.9z M13.5,27.3l0.5-0.2
	L13.5,27.3z M16,31.6l0.4-0.3L16,31.6z M20.7,34.9l0.2-0.5l0,0L20.7,34.9z M23.8,35.5l0,0.5l1.7,0.2l-1.4-1L23.8,35.5z M21,33.1
	l0.4-0.4L21,33.1z M18.3,29.7l0.5-0.2L18.3,29.7z M18,28.8l0.4-0.3l-0.9,0.4L18,28.8z M19.9,31.1l0.4-0.3L19.9,31.1z M22.5,33.9
	l0.4-0.3l0-0.1l0,0L22.5,33.9z M24,35.6L23.7,36L24,35.6z M28.6,36.2l0.1,0.5l0,0l0,0L28.6,36.2z M27.8,34.3l0.2-0.4l0,0L27.8,34.3z
	 M25.5,32.3l0.3-0.4L25.5,32.3z M24.2,31.2l0-0.5l-1.5-0.1l1.2,1L24.2,31.2z M25.4,31.3l0.1-0.5l0,0l0,0L25.4,31.3z M29.5,32.3
	l-0.2,0.5L29.5,32.3z M32.3,34l-0.1,0.5L32.3,34z M35.5,33.6l0.3,0.4l0,0l0,0L35.5,33.6z M34.1,34.4l0.2,0.5L34.1,34.4z M37.1,32.3
	l0.3,0.4l0.5-0.4l-0.4-0.4L37.1,32.3z M36,31.4l0.3-0.4L36,31.4z M33.8,30l0.2-0.4l0,0l0,0L33.8,30z M28.8,29.8l0-0.5l0,0l0,0
	L28.8,29.8z M25.7,30.1l0,0.5l0,0l0,0L25.7,30.1z M23,30.1l-0.2,0.5l0.1,0l0.1,0L23,30.1z M19.9,28.7l-0.3,0.4l0.1,0l0.1,0
	L19.9,28.7z M19.4,28.3l0-0.5L18,27.7l1.1,0.9L19.4,28.3z M23.8,28.5l0,0.5l0,0l0,0L23.8,28.5z M27.7,28.2l0-0.5l0,0l0,0L27.7,28.2z
	 M30.9,28l0.4-0.3l0,0l0,0L30.9,28z M32.1,29.1l-0.3,0.4L32.1,29.1z M28.3,25.8l-0.2,0.4L28.3,25.8z M24.1,24.4l0.2-0.5l-0.1,0
	l-0.1,0L24.1,24.4z M21.2,24.5l0-0.5l0,0L21.2,24.5z M17.3,24.4l-0.1,0.5L17.3,24.4z M14.4,23.5l0.2-0.5l0,0l0,0L14.4,23.5z
	 M13.5,23.2l-0.3,0.4l0.1,0.1l0.1,0L13.5,23.2z M11.5,21.5l0.1-0.5l-1.9-0.4l1.5,1.3L11.5,21.5z M16.2,22.2l0-0.5L16.2,22.2z
	 M20.9,22.3l-0.1,0.5L20.9,22.3z M26.2,25.1L26,25.5l0,0l0,0L26.2,25.1z M23.8,23l0.2-0.5L23.8,23z M22.4,22.6l-0.1,0.5l0,0l0,0
	L22.4,22.6z M19.9,21.2l0.3-0.4l-0.1,0l-0.1,0L19.9,21.2z M16.1,20.1l0.1-0.5l0,0l0,0L16.1,20.1z M12.4,19.3c-0.3,0-0.5,0.2-0.5,0.5
	c0,0.3,0.2,0.5,0.4,0.5L12.4,19.3z M22.1,21l0.1,0.5l1.3-0.2l-1.1-0.7L22.1,21z M20.1,19.7l0.3-0.4l0,0l0,0L20.1,19.7z M15.2,17.7
	l0.2-0.5l0,0l0,0L15.2,17.7z M13.2,17.2l0.1-0.5l0,0l0,0L13.2,17.2z M8.9,16.6l-0.2,0.5l0,0l0.1,0L8.9,16.6z M7.8,16.2L8,15.8
	l-0.1,0l-0.1,0L7.8,16.2z M12,14.9l0.2-0.5l-0.1,0l-0.1,0L12,14.9z M15.7,16.5l0.4,0.3l0.4-0.5L15.9,16L15.7,16.5z M15.4,16.9
	l0.2,0.5l0.1,0l0.1-0.1L15.4,16.9z M5,16.7L5.4,17l0.1-0.1l0-0.1L5,16.7z M4.4,17.7l-0.2,0.5l0.4,0.2L4.8,18L4.4,17.7z M5.3,18.3
	l0.5,0.2l0,0l0,0L5.3,18.3z M4.8,19.7l0.4,0.3l0,0l0-0.1L4.8,19.7z M2.1,6.5L1.6,7.9l0.9,0.3L3,6.8L2.1,6.5z M1.6,8.2L5.2,16
	l0.9-0.4L2.6,7.8L1.6,8.2z M5.3,16c1.1,1.5,3.3,4.6,3.7,5.3l0.8-0.6c-0.4-0.6-2.7-3.8-3.7-5.3L5.3,16z M9,21.3
	c0.1,0.1,0.1,0.2,0.2,0.3c0.1,0.1,0.2,0.2,0.4,0.3c0.3,0.3,0.7,0.6,1.1,1c0.9,0.8,2,1.7,3.1,2.7c1.1,0.9,2.2,1.9,3,2.5
	c0.4,0.3,0.7,0.6,1,0.8c0.1,0.1,0.2,0.2,0.3,0.2c0,0,0.1,0,0.1,0.1c0,0,0,0,0,0c0,0,0,0,0,0c0,0,0,0,0,0c0,0,0,0,0,0
	c0,0,0,0,0.3-0.4c0.3-0.4,0.3-0.4,0.3-0.4c0,0,0,0,0,0c0,0,0,0,0,0c0,0,0,0,0,0c0,0,0,0,0,0c0,0,0,0-0.1-0.1
	c-0.1-0.1-0.2-0.1-0.3-0.2c-0.2-0.2-0.6-0.5-1-0.8c-0.8-0.7-1.9-1.6-3-2.5c-1.1-0.9-2.2-1.9-3.1-2.6c-0.4-0.4-0.8-0.7-1.1-1
	c-0.1-0.1-0.2-0.2-0.3-0.3c-0.1-0.1-0.1-0.1-0.1-0.1L9,21.3z M18.1,29.2c1.5,1.2,3.2,1.9,4.6,2.2c0.7,0.2,1.3,0.3,1.7,0.3
	c0.2,0,0.4,0,0.5,0c0.1,0,0.1,0,0.1,0c0,0,0,0,0,0c0,0,0,0,0,0c0,0,0,0,0,0c0,0,0,0,0,0c0,0,0,0,0,0c0,0,0,0,0-0.5
	c0-0.5,0-0.5,0-0.5c0,0,0,0,0,0s0,0,0,0c0,0,0,0,0,0c0,0,0,0,0,0c0,0,0,0,0,0c0,0-0.1,0-0.1,0c-0.1,0-0.3,0-0.4,0
	c-0.4,0-0.9-0.1-1.5-0.3c-1.3-0.3-2.8-0.9-4.2-2L18.1,29.2z M25.1,31.3c0.2-0.5,0.2-0.5,0.2-0.5c0,0,0,0,0,0c0,0,0,0,0,0
	c0,0,0,0,0,0c0,0,0,0,0,0c0,0,0,0,0,0c0,0-0.1,0-0.1,0c-0.1,0-0.2-0.1-0.4-0.2c-0.4-0.2-0.9-0.4-1.4-0.6c-1.1-0.5-2.5-1.2-3.5-1.8
	L19.3,29c1.1,0.7,2.5,1.3,3.6,1.9c0.6,0.3,1.1,0.5,1.4,0.6c0.2,0.1,0.3,0.1,0.4,0.2c0.1,0,0.1,0,0.1,0c0,0,0,0,0,0c0,0,0,0,0,0
	c0,0,0,0,0,0c0,0,0,0,0,0c0,0,0,0,0,0C24.9,31.7,24.9,31.7,25.1,31.3z M19.8,28.1c-3-1.9-4.4-3.4-6.9-6l-0.7,0.7
	c2.5,2.6,4,4.2,7.1,6.1L19.8,28.1z M12.9,22.2c-0.7-0.7-0.9-0.9-1.2-1.3c-0.3-0.4-0.8-0.9-1.9-2.3L9,19.3c1.1,1.4,1.5,1.9,1.9,2.3
	c0.4,0.4,0.6,0.6,1.3,1.3L12.9,22.2z M9.8,18.7c-1-1.3-2.1-3.1-3.2-5.3C5.5,11.3,4.3,8.8,3,6.4L2.1,6.9c1.3,2.4,2.5,4.8,3.6,6.9
	c1.1,2.1,2.2,4,3.3,5.4L9.8,18.7z M6.8,14.6L8.7,14l-0.3-1l-1.8,0.6L6.8,14.6z M8.9,13.9l0.8-1L9,12.2l-0.8,1L8.9,13.9z M6.8,15.1
	l3.3-0.5l-0.1-1l-3.3,0.5L6.8,15.1z M10.3,14.5l1.2-0.8L11,12.9l-1.2,0.8L10.3,14.5z M6.1,16.3c-0.5-0.1-0.5-0.1-0.5-0.1
	c0,0,0,0,0,0c0,0,0,0,0,0c0,0,0,0,0,0c0,0,0,0,0,0c0,0,0,0,0,0.1c0,0,0,0.1,0,0.2c0,0.2-0.1,0.4-0.1,0.7c-0.1,0.6-0.3,1.4-0.4,2.2
	c-0.1,0.8-0.2,1.8-0.2,2.6c0,0.8,0.1,1.6,0.3,2.1L6,23.5c-0.2-0.3-0.2-0.9-0.2-1.6c0-0.8,0.1-1.6,0.2-2.4c0.1-0.8,0.3-1.6,0.4-2.2
	c0.1-0.3,0.1-0.5,0.1-0.7c0-0.1,0-0.1,0-0.2c0,0,0,0,0,0c0,0,0,0,0,0c0,0,0,0,0,0c0,0,0,0,0,0c0,0,0,0,0,0
	C6.6,16.4,6.6,16.4,6.1,16.3z M5.1,24l2.2,4.3l0.9-0.5L6,23.5L5.1,24z M8.3,19.3l-0.5-1.1l-0.9,0.4l0.5,1.1L8.3,19.3z M7,18.7
	L8,19.9l0.7-0.7l-1.1-1.2L7,18.7z M8.3,28.1l0-5.1l-1,0l0,5.1L8.3,28.1z M8.3,22.9l0-3.5l-1,0l0,3.5L8.3,22.9z M7.9,19.5
	c-0.1,0.5-0.3,1.2-0.4,1.9c-0.1,0.3-0.1,0.7-0.2,0.9c0,0.3-0.1,0.5-0.1,0.7l1,0c0-0.1,0-0.3,0.1-0.5c0-0.3,0.1-0.6,0.2-0.9
	c0.1-0.7,0.3-1.4,0.4-1.8L7.9,19.5z M9.7,27.4c-0.4-0.8-0.7-1.5-0.8-2.2c-0.2-0.7-0.3-1.5-0.6-2.4l-1,0.3c0.3,0.9,0.4,1.6,0.6,2.4
	c0.2,0.8,0.4,1.5,0.9,2.4L9.7,27.4z M8.8,27.9c0.5,0.9,0.9,1.5,1.6,2.3l0.7-0.7c-0.7-0.7-1-1.2-1.5-2.1L8.8,27.9z M10.5,30.2
	c0.7,0.8,1.9,1.5,2.8,2.1c0.5,0.3,0.9,0.5,1.2,0.6c0.2,0.1,0.3,0.1,0.4,0.2c0,0,0.1,0,0.1,0c0,0,0,0,0,0c0,0,0,0,0,0c0,0,0,0,0,0
	c0,0,0,0,0,0c0,0,0,0,0,0c0,0,0,0,0.2-0.5c0.2-0.5,0.2-0.5,0.2-0.5l0,0c0,0,0,0,0,0c0,0,0,0,0,0c0,0,0,0,0,0c0,0,0,0,0,0
	c0,0-0.1,0-0.1,0c-0.1,0-0.2-0.1-0.3-0.2c-0.3-0.1-0.7-0.4-1.1-0.6c-0.9-0.5-1.9-1.2-2.5-1.9L10.5,30.2z M15.1,32.7
	c0.4-0.3,0.4-0.3,0.4-0.3s0,0,0,0h0c0,0,0,0,0,0c0,0,0,0,0,0c0,0,0,0,0,0c0,0,0,0,0,0c0,0-0.1-0.1-0.1-0.1c-0.1-0.1-0.2-0.3-0.4-0.5
	c-0.3-0.4-0.7-0.9-0.9-1.3l-0.9,0.5c0.3,0.5,0.7,1,1,1.4c0.2,0.2,0.3,0.4,0.4,0.5c0.1,0.1,0.1,0.1,0.1,0.1c0,0,0,0,0,0c0,0,0,0,0,0
	c0,0,0,0,0,0c0,0,0,0,0,0c0,0,0,0,0,0c0,0,0,0,0,0C14.7,33,14.7,33,15.1,32.7z M14,30.4c-0.5-0.9-0.7-2.2-0.8-3.4
	c-0.1-1.2-0.1-2.1-0.1-2.1l-1,0c0,0.1,0,1.1,0.1,2.3c0.1,1.2,0.3,2.7,0.9,3.8L14,30.4z M13.1,24.9C13.1,24.9,13.1,24.9,13.1,24.9
	C13.1,24.9,13.1,24.9,13.1,24.9L13.1,24.9C13.1,24.9,13.1,24.9,13.1,24.9L13.1,24.9C13.1,24.9,13.1,24.9,13.1,24.9L13.1,24.9
	L13.1,24.9L13.1,24.9c0,0,0,0-0.5,0c-0.5,0-0.5,0-0.5,0l0,0l0,0l0,0v0l0,0c0,0,0,0,0,0c0,0,0,0,0,0c0,0,0,0,0,0c0,0,0,0,0,0
	L13.1,24.9z M13.1,24.7l-0.3-0.9l-1,0.3l0.3,0.9L13.1,24.7z M12.4,23.9c-0.5,0.1-0.5,0.1-0.5,0.1l0,0c0,0,0,0,0,0c0,0,0,0,0,0
	c0,0,0,0,0,0c0,0,0,0,0,0c0,0,0,0,0,0c0,0,0,0,0,0.1c0,0,0,0.1,0.1,0.2c0,0.2,0.1,0.4,0.2,0.7l1-0.3c-0.1-0.3-0.1-0.5-0.2-0.6
	c0-0.1,0-0.1-0.1-0.2c0,0,0,0,0,0c0,0,0,0,0,0c0,0,0,0,0,0c0,0,0,0,0,0c0,0,0,0,0,0v0v0C12.9,23.8,12.9,23.8,12.4,23.9z M12.2,25
	c0.2,0.7,0.5,1.7,0.9,2.5l0.9-0.4c-0.3-0.7-0.6-1.7-0.8-2.4L12.2,25z M13,27.5c0.8,1.8,1.3,2.9,2.6,4.4l0.7-0.7
	c-1.2-1.4-1.7-2.4-2.5-4.1L13,27.5z M15.6,31.9c1.5,1.7,2.7,2.7,4.9,3.5l0.3-0.9c-2-0.7-3-1.6-4.5-3.2L15.6,31.9z M20.5,35.4
	c1.2,0.4,3.1,0.6,3.2,0.6l0.1-1c-0.1,0-1.9-0.2-2.9-0.6L20.5,35.4z M23.7,36C23.7,36,23.7,36,23.7,36C23.7,36,23.7,36,23.7,36
	C23.7,36,23.7,36,23.7,36C23.7,36,23.7,36,23.7,36C23.7,36,23.7,36,23.7,36L23.7,36L23.7,36L23.7,36L23.7,36c0,0,0,0,0.1-0.5
	c0-0.5,0-0.5,0-0.5l0,0v0c0,0,0,0,0,0l0,0l0,0c0,0,0,0,0,0s0,0,0,0c0,0,0,0,0,0c0,0,0,0,0,0L23.7,36z M23.8,35.5
	c0.3-0.4,0.3-0.4,0.3-0.4l0,0l0,0l0,0l0,0h0c0,0,0,0,0,0c0,0,0,0,0,0c0,0,0,0,0,0c0,0,0,0,0,0l-0.6,0.8c0,0,0,0,0,0c0,0,0,0,0,0
	c0,0,0,0,0,0c0,0,0,0,0,0c0,0,0,0,0,0l0,0l0,0l0,0l0,0C23.5,35.9,23.5,35.9,23.8,35.5z M24,35c-0.3-0.2-1.8-1.4-2.7-2.3l-0.7,0.7
	c0.9,1,2.5,2.2,2.8,2.4L24,35z M21.4,32.7c-1.3-1.3-2.1-1.7-2.6-3.2l-0.9,0.3c0.6,1.8,1.7,2.4,2.9,3.6L21.4,32.7z M18.7,29.5
	c-0.1-0.2-0.1-0.4-0.2-0.5c0-0.1,0-0.2-0.1-0.2c0,0,0-0.1,0-0.1c0,0,0,0,0,0c0,0,0,0,0,0c0,0,0,0,0,0c0,0,0,0,0,0l0,0l0,0
	c0,0,0,0-0.5,0.1c-0.5,0.1-0.5,0.1-0.5,0.1c0,0,0,0,0,0l0,0c0,0,0,0,0,0c0,0,0,0,0,0c0,0,0,0,0,0c0,0,0,0,0,0c0,0,0,0,0,0.1
	c0,0.1,0,0.1,0.1,0.2c0,0.2,0.1,0.4,0.2,0.6L18.7,29.5z M18,28.8c-0.4,0.3-0.4,0.3-0.4,0.3l0,0c0,0,0,0,0,0c0,0,0,0,0,0c0,0,0,0,0,0
	c0,0,0,0,0,0c0,0,0,0,0,0c0,0,0.1,0.1,0.1,0.2c0.1,0.2,0.3,0.4,0.5,0.6c0.4,0.5,0.9,1.1,1.3,1.5l0.8-0.7c-0.4-0.4-0.9-1-1.2-1.5
	c-0.2-0.2-0.4-0.4-0.5-0.6c-0.1-0.1-0.1-0.1-0.1-0.2c0,0,0,0,0,0c0,0,0,0,0,0c0,0,0,0,0,0c0,0,0,0,0,0c0,0,0,0,0,0l0,0
	C18.4,28.5,18.4,28.5,18,28.8z M19.6,31.5c0.5,0.6,1.2,1.3,1.7,1.8c0.3,0.3,0.5,0.5,0.7,0.7c0.1,0.1,0.2,0.2,0.2,0.2
	c0,0,0,0,0.1,0.1c0,0,0,0,0,0c0,0,0,0,0,0c0,0,0,0,0,0c0,0,0,0,0,0c0,0,0,0,0,0s0,0,0.4-0.4c0.4-0.4,0.4-0.4,0.4-0.4s0,0,0,0
	c0,0,0,0,0,0c0,0,0,0,0,0c0,0,0,0,0,0c0,0,0,0,0,0c0,0,0,0-0.1-0.1c0,0-0.1-0.1-0.2-0.2c-0.2-0.2-0.4-0.4-0.7-0.7
	c-0.5-0.5-1.2-1.2-1.7-1.8L19.6,31.5z M22.5,33.9c-0.4,0.3-0.4,0.3-0.4,0.3l0,0c0,0,0,0,0,0c0,0,0,0,0,0c0,0,0,0,0,0c0,0,0,0,0,0
	c0,0,0,0,0,0c0,0,0,0.1,0.1,0.1c0.1,0.1,0.2,0.2,0.3,0.4c0.2,0.3,0.5,0.7,0.9,1.1l0.7-0.7c-0.3-0.3-0.5-0.6-0.8-0.9
	c-0.1-0.1-0.2-0.3-0.3-0.4c0,0-0.1-0.1-0.1-0.1c0,0,0,0,0,0c0,0,0,0,0,0c0,0,0,0,0,0c0,0,0,0,0,0l0,0v0C23,33.6,23,33.6,22.5,33.9z
	 M23.4,35.8C23.4,35.8,23.4,35.8,23.4,35.8l0.7-0.7c0,0,0,0,0,0L23.4,35.8z M23.4,35.8c0.1,0.1,0.2,0.1,0.2,0.2l0.6-0.8
	c-0.1,0-0.1-0.1-0.2-0.1L23.4,35.8z M23.7,36c0.9,0.7,2.2,0.8,3.2,0.8c0.5,0,1,0,1.3-0.1c0.2,0,0.3,0,0.4-0.1c0,0,0.1,0,0.1,0
	c0,0,0,0,0,0c0,0,0,0,0,0c0,0,0,0,0,0c0,0,0,0,0,0c0,0,0,0,0,0c0,0,0,0-0.1-0.5c-0.1-0.5-0.1-0.5-0.1-0.5c0,0,0,0,0,0c0,0,0,0,0,0
	c0,0,0,0,0,0c0,0,0,0,0,0c0,0,0,0,0,0c0,0-0.1,0-0.1,0c-0.1,0-0.2,0-0.4,0c-0.3,0-0.7,0.1-1.2,0.1c-1,0-2-0.1-2.6-0.6L23.7,36z
	 M28.8,36.7l2.7-1l-0.3-0.9l-2.7,1L28.8,36.7z M31.3,35.2c0.1-0.5,0.1-0.5,0.1-0.5l0,0c0,0,0,0,0,0c0,0,0,0,0,0c0,0,0,0,0,0
	c0,0,0,0,0,0c0,0,0,0-0.1,0c-0.1,0-0.1,0-0.3,0c-0.2,0-0.5-0.1-0.9-0.2c-0.7-0.1-1.5-0.4-2.1-0.7l-0.5,0.9c0.7,0.4,1.6,0.6,2.3,0.8
	c0.4,0.1,0.7,0.1,0.9,0.2c0.1,0,0.2,0,0.3,0c0,0,0.1,0,0.1,0c0,0,0,0,0,0c0,0,0,0,0,0c0,0,0,0,0,0c0,0,0,0,0,0c0,0,0,0,0,0
	C31.2,35.7,31.2,35.7,31.3,35.2z M28,33.9c-0.5-0.3-0.8-0.5-1.1-0.8c-0.3-0.3-0.6-0.7-1.1-1.1l-0.7,0.8c0.4,0.4,0.7,0.7,1.1,1
	c0.3,0.3,0.7,0.7,1.3,1L28,33.9z M25.9,32l-1.3-1.1l-0.7,0.8l1.3,1.1L25.9,32z M24.2,31.7l1.1,0.1l0.1-1l-1.1-0.1L24.2,31.7z
	 M25.4,31.3c-0.1,0.5-0.1,0.5-0.1,0.5l0,0c0,0,0,0,0,0c0,0,0,0,0,0c0,0,0,0,0,0c0,0,0,0,0,0c0,0,0,0,0.1,0c0.1,0,0.2,0,0.3,0
	c0.3,0,0.6,0.1,1,0.2c0.8,0.2,1.8,0.4,2.5,0.7l0.4-0.9c-0.8-0.4-1.9-0.6-2.7-0.8c-0.4-0.1-0.8-0.1-1.1-0.2c-0.1,0-0.2,0-0.3,0
	c0,0-0.1,0-0.1,0c0,0,0,0,0,0c0,0,0,0,0,0c0,0,0,0,0,0c0,0,0,0,0,0h0C25.4,30.8,25.4,30.8,25.4,31.3z M29.3,32.7
	c0.5,0.2,0.8,0.5,1.2,0.9c0.4,0.3,0.9,0.7,1.6,0.9l0.2-1c-0.5-0.1-0.8-0.3-1.2-0.7c-0.4-0.3-0.8-0.7-1.5-1L29.3,32.7z M32.2,34.5
	c0.7,0.1,1.3,0.2,1.8,0.1c0.6-0.1,1.1-0.3,1.8-0.6l-0.5-0.9c-0.5,0.3-1,0.4-1.4,0.5c-0.4,0.1-0.9,0-1.5-0.1L32.2,34.5z M35.3,33.1
	c-0.6,0.4-0.8,0.6-1.4,0.8l0.4,0.9c0.6-0.3,1-0.6,1.4-0.9L35.3,33.1z M33.9,34c-0.5,0.2-1.1,0.4-1.7,0.6c-0.3,0.1-0.5,0.1-0.7,0.2
	c-0.1,0-0.2,0-0.2,0c0,0,0,0-0.1,0c0,0,0,0,0,0c0,0,0,0,0,0c0,0,0,0,0,0c0,0,0,0,0,0l0,0c0,0,0,0,0.1,0.5c0.1,0.5,0.1,0.5,0.1,0.5
	c0,0,0,0,0,0c0,0,0,0,0,0c0,0,0,0,0,0c0,0,0,0,0,0c0,0,0,0,0,0c0,0,0,0,0.1,0c0.1,0,0.1,0,0.2,0c0.2,0,0.5-0.1,0.8-0.2
	c0.6-0.1,1.4-0.3,1.9-0.6L33.9,34z M35.8,33.9l1.5-1.2l-0.6-0.8l-1.5,1.2L35.8,33.9z M37.1,32.3c0.3-0.4,0.3-0.4,0.3-0.4l0,0
	c0,0,0,0,0,0c0,0,0,0,0,0c0,0,0,0,0,0c0,0,0,0,0,0c0,0,0,0,0,0c0,0,0,0-0.1-0.1c-0.1-0.1-0.2-0.1-0.3-0.2c-0.2-0.2-0.5-0.4-0.7-0.6
	l-0.6,0.8c0.2,0.2,0.5,0.4,0.7,0.6c0.1,0.1,0.2,0.2,0.3,0.2c0,0,0.1,0.1,0.1,0.1c0,0,0,0,0,0c0,0,0,0,0,0c0,0,0,0,0,0c0,0,0,0,0,0
	l0,0l0,0C36.7,32.7,36.7,32.7,37.1,32.3z M36.3,31c-0.8-0.6-1.4-1-2.3-1.4l-0.5,0.9c0.9,0.4,1.4,0.7,2.1,1.3L36.3,31z M33.8,29.5
	l-5-0.1l0,1l5,0.1L33.8,29.5z M28.8,29.3l-3.1,0.3l0.1,1l3.1-0.3L28.8,29.3z M25.7,29.6l-2.7,0l0,1l2.7,0L25.7,29.6z M23.2,29.7
	l-3-1.4l-0.4,0.9l3,1.4L23.2,29.7z M20.2,28.3l-0.5-0.4l-0.7,0.8l0.5,0.4L20.2,28.3z M19.4,28.8l4.4,0.2l0-1l-4.4-0.2L19.4,28.8z
	 M23.9,29l3.8-0.3l-0.1-1L23.8,28L23.9,29z M27.7,28.7l3.2-0.2l0-1l-3.2,0.2L27.7,28.7z M30.5,28.3c0.5,0.5,0.8,0.8,1.4,1.2l0.6-0.8
	c-0.5-0.4-0.8-0.6-1.2-1L30.5,28.3z M31.8,29.5c0.6,0.4,1,0.7,1.7,0.9l0.4-0.9c-0.6-0.3-1-0.4-1.5-0.8L31.8,29.5z M31.2,27.6
	c-0.5-0.4-0.8-0.8-1.2-1.2c-0.4-0.4-0.8-0.8-1.5-1.1l-0.5,0.9c0.5,0.3,0.9,0.6,1.2,0.9c0.3,0.3,0.7,0.8,1.2,1.2L31.2,27.6z M24,23.9
	L21.2,24l0,1l2.8-0.1L24,23.9z M21.2,24.5c0-0.5,0-0.5,0-0.5l0,0h0c0,0,0,0,0,0c0,0,0,0,0,0c0,0,0,0,0,0c0,0,0,0-0.1,0
	c-0.1,0-0.2,0-0.3,0c-0.2,0-0.6,0-1,0c-0.8,0-1.7,0-2.5-0.2l-0.2,1C18,25,19,25,19.8,25c0.4,0,0.8,0,1,0c0.1,0,0.2,0,0.3,0
	c0,0,0.1,0,0.1,0c0,0,0,0,0,0c0,0,0,0,0,0c0,0,0,0,0,0c0,0,0,0,0,0c0,0,0,0,0,0C21.3,25,21.3,25,21.2,24.5z M17.4,23.9
	c-0.5-0.1-1.2-0.3-1.8-0.5c-0.3-0.1-0.5-0.2-0.7-0.2c-0.1,0-0.2-0.1-0.2-0.1c0,0,0,0-0.1,0c0,0,0,0,0,0c0,0,0,0,0,0c0,0,0,0,0,0
	c0,0,0,0,0,0l0,0c0,0,0,0-0.2,0.5C14.3,24,14.3,24,14.3,24c0,0,0,0,0,0c0,0,0,0,0,0c0,0,0,0,0,0c0,0,0,0,0,0c0,0,0,0,0,0
	c0,0,0,0,0.1,0c0,0,0.1,0,0.2,0.1c0.2,0.1,0.4,0.2,0.7,0.3c0.6,0.2,1.3,0.4,1.9,0.5L17.4,23.9z M14.6,23l-0.9-0.3l-0.3,1l0.9,0.3
	L14.6,23z M13.8,22.8l-2-1.7l-0.7,0.8l2,1.7L13.8,22.8z M11.5,21.5C11.4,22,11.4,22,11.4,22h0c0,0,0,0,0,0c0,0,0,0,0,0c0,0,0,0,0,0
	c0,0,0,0,0,0c0,0,0.1,0,0.1,0c0.1,0,0.2,0,0.3,0.1c0.3,0.1,0.7,0.1,1.2,0.2c0.9,0.2,2.1,0.3,3,0.4l0.1-1c-0.9-0.1-2-0.3-3-0.4
	c-0.5-0.1-0.9-0.2-1.2-0.2c-0.1,0-0.3-0.1-0.3-0.1c0,0-0.1,0-0.1,0c0,0,0,0,0,0c0,0,0,0,0,0c0,0,0,0,0,0c0,0,0,0,0,0c0,0,0,0,0,0
	S11.6,21,11.5,21.5z M16.1,22.7c1,0.1,1.7,0,2.4,0c0.7,0,1.4-0.1,2.2,0.1l0.2-1c-1-0.2-1.7-0.1-2.4-0.1c-0.7,0-1.4,0.1-2.3,0
	L16.1,22.7z M28.5,25.3c-0.8-0.4-1.4-0.6-2.3-0.8l-0.2,1c0.8,0.1,1.2,0.3,2,0.7L28.5,25.3z M26.3,24.6l-2.1-0.7l-0.3,1l2.1,0.7
	L26.3,24.6z M23.7,23.4c0.5,0.2,0.8,0.5,1.1,0.8c0.3,0.3,0.6,0.8,1.1,1.2l0.7-0.7c-0.4-0.4-0.7-0.7-1-1.1c-0.4-0.4-0.8-0.8-1.4-1
	L23.7,23.4z M20.8,22.8c0.6,0.1,0.8,0.2,1.5,0.3l0.2-1c-0.5-0.1-0.9-0.2-1.5-0.3L20.8,22.8z M22.3,23.1c0.5,0,0.8,0.1,1.3,0.3
	l0.4-0.9c-0.6-0.2-1-0.3-1.7-0.4L22.3,23.1z M22.6,22.2l-2.4-1.5l-0.5,0.9l2.4,1.5L22.6,22.2z M20.1,20.7l-3.8-1.1l-0.3,1l3.8,1.1
	L20.1,20.7z M16.1,19.6l-3.8-0.3l-0.1,1l3.8,0.3L16.1,19.6z M20.2,21.8l2-0.4l-0.2-1l-2,0.4L20.2,21.8z M22.4,20.6l-2.1-1.3
	l-0.5,0.9l2.1,1.3L22.4,20.6z M20.3,19.3l-4.9-2L15,18.2l4.9,2L20.3,19.3z M15.3,17.3l-2-0.5l-0.3,1l2,0.5L15.3,17.3z M13.3,16.7
	l-4.3-0.6l-0.1,1l4.3,0.6L13.3,16.7z M9,16.1L8,15.8l-0.4,0.9l1.1,0.4L9,16.1z M7.8,15.7l-0.2,0l0.1,1l0.2,0L7.8,15.7z M7.2,15.8
	l4.8-0.5l-0.1-1l-4.8,0.5L7.2,15.8z M11.8,15.3l3.8,1.6l0.4-0.9l-3.8-1.6L11.8,15.3z M15.3,16.2L15,16.6l0.8,0.6l0.4-0.4L15.3,16.2z
	 M15.2,16.5L14,16.9l0.4,0.9l1.1-0.5L15.2,16.5z M4.8,15l-0.3,1.6l1,0.2l0.3-1.6L4.8,15z M4.6,16.5l-0.7,1L4.8,18l0.7-1L4.6,16.5z
	 M4.6,17.3l-0.9-0.4l-0.4,0.9l0.9,0.4L4.6,17.3z M5.3,15.7l-0.5,2.4l1,0.2l0.5-2.4L5.3,15.7z M4.8,18.1l-0.5,1.4l0.9,0.4l0.5-1.4
	L4.8,18.1z M4.4,19.4l-0.6,1l0.8,0.6l0.6-1L4.4,19.4z"/>
</svg>
